<?xml version="1.0" encoding="UTF-8"?>
<!DOCTYPE svg PUBLIC "-//W3C//DTD SVG 1.1//EN" "http://www.w3.org/Graphics/SVG/1.1/DTD/svg11.dtd">
<!-- Creator: CorelDRAW X8 -->
<svg xmlns="http://www.w3.org/2000/svg" xml:space="preserve" width="420mm" height="297mm" version="1.1" style="shape-rendering:geometricPrecision; text-rendering:geometricPrecision; image-rendering:optimizeQuality; fill-rule:evenodd; clip-rule:evenodd"
viewBox="0 0 42000 29700"
 xmlns:xlink="http://www.w3.org/1999/xlink">
 <defs>
  <style type="text/css">
   <![CDATA[
    .str4 {stroke:black;stroke-width:100}
    .str5 {stroke:black;stroke-width:200}
    .str3 {stroke:black;stroke-width:300}
    .str1 {stroke:black;stroke-width:400}
    .str0 {stroke:black;stroke-width:500}
    .str6 {stroke:black;stroke-width:150}
    .str2 {stroke:black;stroke-width:20}
    .fil0 {fill:none}
    .fil2 {fill:black}
    .fil1 {fill:black;fill-rule:nonzero}
   ]]>
  </style>
 </defs>
 <g id="Слой_x0020_1">
  <metadata id="CorelCorpID_0Corel-Layer"/>
  <g id="_2486710167888">
   <path class="fil0 str0" d="M22341 26408c-18169,0 -18169,0 -18169,0"/>
   <path class="fil0 str1" d="M4378 16783c0,9737 0,9737 0,9737"/>
   <path class="fil0 str1" d="M9035 13369c-4657,3514 -4657,3514 -4657,3514"/>
   <path class="fil1" d="M15554 16369c-16,349 -110,657 -283,925 -172,267 -414,474 -724,621 -312,147 -667,221 -1067,221 -660,0 -1178,-215 -1557,-644 -380,-430 -569,-1036 -569,-1820l0 -248c0,-491 86,-922 257,-1290 171,-369 418,-653 739,-855 321,-201 694,-301 1116,-301 609,0 1098,160 1467,481 371,320 580,762 631,1324l-1206 0c-9,-305 -85,-525 -230,-659 -145,-133 -366,-200 -662,-200 -301,0 -521,113 -661,337 -140,226 -214,586 -221,1081l0 355c0,535 67,919 202,1149 134,229 366,345 694,345 277,0 490,-66 637,-197 147,-132 225,-340 234,-625l1203 0z"/>
   <path class="fil1" d="M12764 21112c19,561 309,841 868,841 287,0 504,-90 649,-273 147,-182 233,-489 261,-919l-1385 0 0 -932 1385 0c-32,-412 -123,-710 -272,-895 -150,-184 -355,-276 -620,-276 -296,0 -517,68 -663,205 -146,136 -224,358 -233,666l-1202 0c51,-562 260,-1003 630,-1322 370,-320 859,-480 1468,-480 417,0 787,99 1108,296 319,198 566,482 740,853 173,371 260,803 260,1297l0 273c0,766 -189,1365 -569,1794 -378,429 -897,644 -1557,644 -397,0 -750,-73 -1059,-219 -308,-147 -551,-354 -725,-623 -175,-269 -271,-578 -289,-930l1205 0z"/>
   <path class="fil0 str1" d="M9680 7784c7155,0 7155,0 7155,0"/>
   <path class="fil0 str1" d="M9035 13369c0,11388 0,11388 0,11388"/>
   <path class="fil0 str1" d="M9881 7784c0,16846 0,16846 0,16846"/>
   <path class="fil0 str1" d="M10067 24630c-1231,0 -1231,0 -1231,0"/>
   <path class="fil0 str1" d="M17595 11053c4656,2388 4656,2388 4656,2388"/>
   <path class="fil1" d="M17728 16058l-752 0 0 2043 -605 0 0 -2043 -739 0 0 -466 2096 0 0 466zm860 1189l0 854 -605 0 0 -2509 1001 0c192,0 362,36 509,106 148,71 262,171 343,301 81,130 121,278 121,443 0,244 -87,439 -263,586 -175,146 -415,219 -720,219l-386 0zm0 -466l396 0c117,0 207,-29 268,-87 61,-59 92,-141 92,-248 0,-117 -32,-211 -95,-281 -63,-70 -149,-106 -258,-107l-403 0 0 723zm3814 117c0,245 -45,462 -136,650 -90,189 -220,334 -387,436 -167,101 -357,152 -571,152 -213,0 -403,-49 -568,-148 -165,-98 -294,-238 -387,-421 -92,-182 -141,-392 -145,-629l0 -141c0,-246 44,-463 135,-651 90,-188 219,-333 387,-435 169,-103 360,-154 575,-154 212,0 402,51 568,152 167,101 296,245 389,431 92,187 139,401 140,643l0 115zm-615 -105c0,-250 -41,-440 -125,-569 -83,-129 -202,-194 -357,-194 -304,0 -463,227 -481,683l-1 185c0,246 40,435 122,567 81,132 202,198 363,198 153,0 271,-65 353,-195 83,-130 125,-316 126,-560l0 -115zm2399 -1201l605 0 0 2509 -605 0 0 -1582 -901 1582 -604 0 0 -2509 604 0 0 1584 901 -1584zm192 -673c0,157 -57,285 -174,382 -116,98 -270,147 -463,147 -193,0 -347,-49 -464,-147 -115,-97 -174,-225 -174,-382l395 0c0,68 22,122 65,161 43,38 103,57 178,57 76,0 134,-18 177,-55 42,-38 63,-92 63,-163l397 0z"/>
   <path class="fil1" d="M17050 19995l-286 0 0 991 -605 0 0 -2508 605 0 0 970 232 0 483 -970 732 0 -689 1158 775 1350 -715 0 -532 -991zm3371 143c-9,174 -56,328 -142,462 -86,134 -207,237 -362,311 -156,73 -334,110 -534,110 -329,0 -589,-107 -778,-322 -190,-214 -285,-518 -285,-909l0 -124c0,-246 43,-461 129,-645 85,-185 209,-327 369,-428 161,-100 347,-150 558,-150 305,0 550,80 734,240 185,160 290,381 315,662l-602 0c-5,-153 -43,-263 -116,-330 -72,-66 -182,-100 -331,-100 -150,0 -260,57 -330,169 -70,113 -107,293 -111,540l0 178c0,267 34,459 102,574 67,115 182,173 346,173 139,0 246,-33 319,-99 74,-65 112,-169 117,-312l602 0zm2393 848l-605 0 0 -2042 -901 0 0 2042 -605 0 0 -2508 2111 0 0 2508zm1931 -1065l-951 0 0 599 1123 0 0 466 -1728 0 0 -2508 1732 0 0 466 -1127 0 0 529 951 0 0 448zm1023 211l0 854 -604 0 0 -2508 1000 0c192,0 362,35 510,106 147,70 261,170 342,301 81,130 121,277 121,442 0,244 -87,440 -262,586 -176,146 -415,219 -721,219l-386 0zm0 -465l396 0c117,0 207,-30 268,-88 62,-59 92,-141 92,-248 0,-117 -32,-211 -94,-280 -63,-71 -150,-106 -259,-107l-403 0 0 723zm3660 -723l-752 0 0 2042 -605 0 0 -2042 -740 0 0 -466 2097 0 0 466z"/>
   <path class="fil0 str1" d="M16631 7762c0,6111 0,6111 0,6111"/>
   <path class="fil0 str1" d="M22144 13263c0,1585 0,1585 0,1585"/>
   <path class="fil0 str1" d="M17698 11104c0,2449 0,2449 0,2449"/>
   <path class="fil0 str1" d="M16694 13674c1206,0 1206,0 1206,0"/>
   <polygon class="fil2 str2" points="9223,12954 9224,13311 9225,13668 8982,13516 8739,13363 8981,13159 "/>
   <polygon class="fil2 str2" points="4314,16691 4368,16734 4422,16778 4314,16776 4206,16775 4260,16733 "/>
   <polygon class="fil2 str2" points="17927,11019 17720,11187 17512,11356 17502,11070 17491,10785 17709,10902 "/>
   <rect class="fil2" x="12264" y="25130" width="2067" height="1278"/>
   <rect class="fil2" x="19308" y="25129" width="1230" height="1278"/>
   <rect class="fil2" x="6091" y="25198" width="1230" height="1278"/>
   <path class="fil0 str3" d="M8188 7031c0,7096 0,7096 0,7096"/>
   <path class="fil0 str3" d="M7165 7242c0,7509 0,7509 0,7509"/>
   <path class="fil0 str4" d="M19924 4570c0,2113 0,2113 0,2113"/>
   <path class="fil0 str5" d="M3246 8050c16612,-3423 16612,-3423 16612,-3423"/>
   <path class="fil0 str6" d="M7165 8563c1023,479 1023,479 1023,479"/>
   <path class="fil0 str6" d="M7165 9312c1023,479 1023,479 1023,479"/>
   <path class="fil0 str6" d="M7545 7209c643,301 643,301 643,301"/>
   <path class="fil0 str6" d="M7165 10785c1023,479 1023,479 1023,479"/>
   <path class="fil0 str6" d="M7165 10064c1023,480 1023,480 1023,480"/>
   <path class="fil0 str6" d="M7165 13873c853,399 853,399 853,399"/>
   <path class="fil0 str6" d="M7205 13161c1023,479 1023,479 1023,479"/>
   <path class="fil0 str6" d="M7165 12316c1023,479 1023,479 1023,479"/>
   <path class="fil0 str6" d="M7165 11505c1023,479 1023,479 1023,479"/>
   <path class="fil0 str6" d="M7165 7760c1023,479 1023,479 1023,479"/>
   <path class="fil0 str5" d="M2490 7320c16613,-3423 16613,-3423 16613,-3423"/>
   <path class="fil0 str6" d="M19032 3863c944,764 944,764 944,764"/>
   <path class="fil0 str6" d="M18489 4967c575,-1070 575,-1070 575,-1070"/>
   <path class="fil0 str6" d="M11912 5431c865,698 865,698 865,698"/>
   <path class="fil0 str6" d="M2871 8161c575,-1070 575,-1070 575,-1070"/>
   <path class="fil0 str6" d="M12747 6144c575,-1071 575,-1071 575,-1071"/>
   <path class="fil0 str6" d="M14156 5867c575,-1070 575,-1070 575,-1070"/>
   <path class="fil0 str6" d="M17054 5239c575,-1070 575,-1070 575,-1070"/>
   <path class="fil0 str6" d="M15595 5557c575,-1070 575,-1070 575,-1070"/>
   <path class="fil0 str6" d="M3452 7161c864,699 864,699 864,699"/>
   <path class="fil0 str6" d="M10473 5704c864,698 864,698 864,698"/>
   <path class="fil0 str6" d="M14731 4797c864,698 864,698 864,698"/>
   <path class="fil0 str6" d="M13322 5081c864,699 864,699 864,699"/>
   <path class="fil0 str6" d="M16231 4523c864,698 864,698 864,698"/>
   <path class="fil0 str6" d="M17671 4249c864,699 864,699 864,699"/>
   <path class="fil0 str6" d="M11337 6402c575,-1070 575,-1070 575,-1070"/>
   <path class="fil0 str6" d="M5664 7581c575,-1070 575,-1070 575,-1070"/>
   <path class="fil0 str6" d="M7054 7289c575,-1070 575,-1070 575,-1070"/>
   <path class="fil0 str6" d="M8489 7031c575,-1070 575,-1070 575,-1070"/>
   <path class="fil0 str6" d="M9928 6679c575,-1070 575,-1070 575,-1070"/>
   <path class="fil0 str6" d="M4810 6849c864,699 864,699 864,699"/>
   <path class="fil0 str6" d="M6168 6511c864,698 864,698 864,698"/>
   <path class="fil0 str6" d="M7651 6261c865,699 865,699 865,699"/>
   <path class="fil0 str6" d="M9064 5980c864,699 864,699 864,699"/>
   <path class="fil0 str5" d="M2548 7209c215,1032 215,1032 215,1032"/>
   <path class="fil0 str6" d="M4235 7895c575,-1070 575,-1070 575,-1070"/>
   <path class="fil0 str5" d="M2667 8166c633,-125 633,-125 633,-125"/>
   <polygon class="fil0 str4" points="19924,7030 20691,7973 21458,8916 19924,8916 18390,8916 19157,7973 "/>
   <circle class="fil2 str4" cx="19924" cy="6814" r="175"/>
   <path class="fil0 str4" d="M18286 9014c3276,0 3276,0 3276,0"/>
   <path class="fil0 str4" d="M7122 4245c0,2121 0,2121 0,2121"/>
   <path class="fil0 str4" d="M2568 7304c4554,-3059 4554,-3059 4554,-3059l11937 -339"/>
   <rect class="fil2" x="10795" y="8563" width="798" height="989"/>
   <rect class="fil2" x="11776" y="8563" width="1363" height="989"/>
   <rect class="fil2" x="13321" y="8563" width="1381" height="989"/>
   <rect class="fil2" x="14884" y="8563" width="832" height="989"/>
   <rect class="fil2" x="14884" y="10064" width="832" height="989"/>
   <rect class="fil2" x="13329" y="23641" width="1381" height="989"/>
   <rect class="fil2" x="11776" y="10064" width="1363" height="989"/>
   <rect class="fil2" x="10795" y="10064" width="798" height="989"/>
   <rect class="fil2" x="14884" y="23641" width="832" height="989"/>
   <rect class="fil2" x="13321" y="10064" width="1381" height="989"/>
   <rect class="fil2" x="11776" y="11566" width="1363" height="989"/>
   <rect class="fil2" x="10795" y="11566" width="798" height="989"/>
   <rect class="fil2" x="5225" y="20527" width="845" height="989"/>
   <rect class="fil2" x="5251" y="23641" width="845" height="989"/>
   <rect class="fil2" x="6252" y="17454" width="913" height="989"/>
   <rect class="fil2" x="7348" y="17454" width="840" height="989"/>
   <rect class="fil2" x="5251" y="22106" width="845" height="989"/>
   <rect class="fil2" x="5225" y="17454" width="845" height="989"/>
   <rect class="fil2" x="5225" y="19013" width="845" height="989"/>
   <rect class="fil2" x="6250" y="23652" width="913" height="989"/>
   <rect class="fil2" x="6252" y="22106" width="913" height="989"/>
   <rect class="fil2" x="6250" y="20527" width="913" height="989"/>
   <rect class="fil2" x="6252" y="19013" width="913" height="989"/>
   <rect class="fil2" x="7343" y="22106" width="840" height="989"/>
   <rect class="fil2" x="7348" y="23652" width="840" height="989"/>
   <rect class="fil2" x="7343" y="20527" width="840" height="989"/>
   <rect class="fil2" x="7348" y="19013" width="840" height="989"/>
   <rect class="fil2" x="18533" y="22106" width="775" height="989"/>
   <rect class="fil2" x="19490" y="22106" width="865" height="989"/>
   <rect class="fil2" x="20538" y="22106" width="773" height="989"/>
   <rect class="fil2" x="20538" y="23641" width="773" height="989"/>
   <rect class="fil2" x="19490" y="23641" width="865" height="989"/>
   <rect class="fil2" x="18533" y="23641" width="775" height="989"/>
   <path class="fil2" d="M6252 16462c913,-697 913,-697 913,-697l0 1118 -913 0 0 -421z"/>
   <path class="fil2" d="M6069 16883c0,-282 0,-282 0,-282l-369 282 369 0z"/>
   <path class="fil2" d="M7348 15626c840,-641 840,-641 840,-641l0 1898 -840 0 0 -1257z"/>
   <rect class="fil2" x="14884" y="11566" width="832" height="989"/>
   <rect class="fil2" x="11757" y="23642" width="1381" height="989"/>
   <rect class="fil2" x="13321" y="11566" width="1381" height="989"/>
   <rect class="fil2" x="10795" y="23641" width="798" height="989"/>
   <path class="fil2" d="M18535 12555c773,373 773,373 773,373l0 945 -773 0 0 -1318z"/>
   <path class="fil2" d="M19490 13016c865,418 865,418 865,418l0 439 -865 0 0 -857z"/>
   <path class="fil2" d="M20538 13522c727,351 727,351 727,351l-727 0 0 -351z"/>
  </g>
 </g>
</svg>
